<svg width="200" height="200" xmlns="http://www.w3.org/2000/svg">
 <g>
  <path stroke="null" id="svg_1" d="m159.90117,13.17894c11.95558,6.82023 22.4397,15.05154 29.24519,25.0859c6.80548,9.95597 9.84036,21.79337 10.30019,33.86596c0.36786,11.99419 -1.93129,24.22357 -8.46087,34.5715c-6.62155,10.26954 -17.47354,18.73603 -29.88895,24.22357c-12.41541,5.48754 -26.39424,7.99613 -40.74094,8.54488c-14.43866,0.62715 -29.24519,-0.70554 -40.92487,-6.50665c-11.67968,-5.87951 -23.68116,-15.47013 -30.39468,-26.44521c-6.62155,-10.89669 -7.95514,-23.17783 -8.04711,-34.62327c0,-11.52383 4.69027,-23.04767 11.49575,-33.86596c6.80548,-10.7399 15.63422,-20.69587 27.40587,-27.67288c11.67968,-6.97702 26.30228,-10.97508 40.37307,-10.19115c13.97883,0.70554 27.5898,6.19308 39.63735,13.01331z" fill="#FF0066"/>
  <path stroke="null" id="svg_2" d="m104.31016,82.25983c11.79577,3.8441 24.16895,9.49258 31.92281,18.82825c7.75386,9.33567 10.8884,22.35855 9.56859,34.67536c-1.31981,12.23836 -7.09396,23.84912 -13.94045,34.67536c-6.84649,10.82624 -14.76533,20.94643 -25.24129,25.73194c-10.55845,4.70706 -23.67402,4.07945 -35.79974,2.27508c-12.04323,-1.80437 -22.93163,-4.86396 -32.41774,-10.19864c-9.40362,-5.33467 -17.32245,-13.02287 -24.58139,-22.04474c-7.25893,-9.02187 -13.94045,-19.37741 -14.10543,-29.8114c-0.08249,-10.43399 6.26908,-20.94643 12.53816,-31.61577c6.26908,-10.59089 12.53816,-21.41713 22.10675,-26.438c9.56859,-5.02087 22.4367,-4.39326 34.56242,-3.05959c12.20821,1.25522 23.50905,3.21649 35.3873,6.98214z" fill="#FF0066"/>
 </g>
</svg>