<svg xmlns="http://www.w3.org/2000/svg" xmlns:xlink="http://www.w3.org/1999/xlink" version="1.1" width="256" height="256" viewBox="0 0 256 256" xml:space="preserve">

<defs>
</defs>
<g style="stroke: none; stroke-width: 0; stroke-dasharray: none; stroke-linecap: butt; stroke-linejoin: miter; stroke-miterlimit: 10; fill: none; fill-rule: nonzero; opacity: 1;" transform="translate(1.4065934065934016 1.4065934065934016) scale(2.81 2.81)" >
	<path d="M 87.458 67.132 L 65.794 29.609 l -7.005 -11.515 L 54.173 10.1 c -2.054 -3.557 -5.731 -5.681 -9.838 -5.681 c -4.108 0 -7.786 2.124 -9.84 5.681 L 12.831 47.623 L 7.157 58.936 l -4.615 7.994 c -2.054 3.557 -2.054 7.804 -0.001 11.361 c 2.054 3.558 5.732 5.681 9.84 5.681 h 43.328 l 12.679 0.202 l 9.231 -0.001 c 4.107 0 7.785 -2.123 9.839 -5.68 C 89.512 74.937 89.512 70.69 87.458 67.132 z" style="stroke: none; stroke-width: 1; stroke-dasharray: none; stroke-linecap: butt; stroke-linejoin: miter; stroke-miterlimit: 10; fill: rgb(178,226,84); fill-rule: nonzero; opacity: 1;" transform=" matrix(1 0 0 1 0 0) " stroke-linecap="round" />
	<path d="M 52.709 83.973 H 12.381 c -4.108 0 -7.786 -2.123 -9.84 -5.681 c -2.053 -3.557 -2.053 -7.804 0.001 -11.361 l 4.615 -7.994 l -1.218 -0.703 l 9.066 -5.234 l 0.001 10.469 l -1.567 -0.905 l -4.615 7.994 c -1.071 1.853 -0.357 3.49 0 4.107 c 0.356 0.618 1.417 2.054 3.557 2.054 h 40.329 L 52.709 83.973 z" style="stroke: none; stroke-width: 1; stroke-dasharray: none; stroke-linecap: butt; stroke-linejoin: miter; stroke-miterlimit: 10; fill: rgb(119,162,34); fill-rule: nonzero; opacity: 1;" transform=" matrix(1 0 0 1 0 0) " stroke-linecap="round" />
	<path d="M 14.331 45.025 L 34.495 10.1 c 2.054 -3.557 5.732 -5.681 9.84 -5.681 c 4.107 0 7.785 2.124 9.838 5.681 l 4.616 7.994 l 1.218 -0.703 l 0 10.469 l -9.067 -5.234 l 1.567 -0.905 l -4.616 -7.994 c -1.07 -1.854 -2.844 -2.054 -3.556 -2.054 c -0.713 0 -2.487 0.2 -3.558 2.054 L 20.612 48.653 L 14.331 45.025 z" style="stroke: none; stroke-width: 1; stroke-dasharray: none; stroke-linecap: butt; stroke-linejoin: miter; stroke-miterlimit: 10; fill: rgb(119,162,34); fill-rule: nonzero; opacity: 1;" transform=" matrix(1 0 0 1 0 0) " stroke-linecap="round" />
	<path d="M 67.294 32.207 l 20.164 34.925 c 2.054 3.557 2.054 7.805 0 11.362 c -2.054 3.557 -5.732 5.68 -9.839 5.68 l -9.231 0.001 l 0 1.406 l -9.066 -5.234 l 9.066 -5.236 l 0 1.809 l 9.231 0 c 2.14 0 3.201 -1.436 3.557 -2.053 c 0.357 -0.618 1.071 -2.254 0 -4.108 L 61.011 35.833 L 67.294 32.207 z" style="stroke: none; stroke-width: 1; stroke-dasharray: none; stroke-linecap: butt; stroke-linejoin: miter; stroke-miterlimit: 10; fill: rgb(119,162,34); fill-rule: nonzero; opacity: 1;" transform=" matrix(1 0 0 1 0 0) " stroke-linecap="round" />
	<path d="M 56.775 70.697 V 46.064 c 0 -0.869 -0.305 -1.711 -0.863 -2.379 l -7.46 -8.934 h -6.818 l -6.63 7.94 c -1.094 1.31 -1.693 2.962 -1.693 4.669 l -0.087 23.338 v 0.703 h 23.55 V 70.697 z" style="stroke: none; stroke-width: 1; stroke-dasharray: none; stroke-linecap: butt; stroke-linejoin: miter; stroke-miterlimit: 10; fill: rgb(240,240,240); fill-rule: nonzero; opacity: 1;" transform=" matrix(1 0 0 1 0 0) " stroke-linecap="round" />
	<rect x="41.63" y="29.27" rx="0" ry="0" width="6.82" height="5.48" style="stroke: none; stroke-width: 1; stroke-dasharray: none; stroke-linecap: butt; stroke-linejoin: miter; stroke-miterlimit: 10; fill: rgb(254,100,111); fill-rule: nonzero; opacity: 1;" transform=" matrix(1 0 0 1 0 0) "/>
	<rect x="33.31" y="49.66" rx="0" ry="0" width="23.46" height="14.62" style="stroke: none; stroke-width: 1; stroke-dasharray: none; stroke-linecap: butt; stroke-linejoin: miter; stroke-miterlimit: 10; fill: rgb(254,100,111); fill-rule: nonzero; opacity: 1;" transform=" matrix(1 0 0 1 0 0) "/>
	<path d="M 56.775 72.4 c -0.553 0 -1 -0.447 -1 -1 V 47.359 c 0 -1.47 -0.519 -2.9 -1.46 -4.028 l -6.331 -7.581 h -5.882 l -6.33 7.581 c -0.942 1.128 -1.46 2.559 -1.46 4.028 L 34.225 71.4 c 0 0.553 -0.448 1 -1 1 s -1 -0.447 -1 -1 v -0.703 l 0.086 -23.342 c 0 -1.933 0.684 -3.819 1.925 -5.306 l 6.63 -7.94 c 0.19 -0.228 0.471 -0.359 0.768 -0.359 h 6.818 c 0.297 0 0.577 0.131 0.768 0.359 l 6.631 7.94 c 1.241 1.487 1.925 3.372 1.925 5.31 V 71.4 C 57.775 71.953 57.328 72.4 56.775 72.4 z" style="stroke: none; stroke-width: 1; stroke-dasharray: none; stroke-linecap: butt; stroke-linejoin: miter; stroke-miterlimit: 10; fill: rgb(0,0,0); fill-rule: nonzero; opacity: 1;" transform=" matrix(1 0 0 1 0 0) " stroke-linecap="round" />
	<path d="M 48.452 35.75 h -6.818 c -0.552 0 -1 -0.448 -1 -1 v -5.476 c 0 -0.552 0.448 -1 1 -1 h 6.818 c 0.553 0 1 0.448 1 1 v 5.476 C 49.452 35.303 49.005 35.75 48.452 35.75 z M 42.634 33.75 h 4.818 v -3.476 h -4.818 V 33.75 z" style="stroke: none; stroke-width: 1; stroke-dasharray: none; stroke-linecap: butt; stroke-linejoin: miter; stroke-miterlimit: 10; fill: rgb(0,0,0); fill-rule: nonzero; opacity: 1;" transform=" matrix(1 0 0 1 0 0) " stroke-linecap="round" />
	<path d="M 56.775 65.281 H 33.311 c -0.552 0 -1 -0.447 -1 -1 v -14.62 c 0 -0.553 0.448 -1 1 -1 h 23.464 c 0.553 0 1 0.447 1 1 s -0.447 1 -1 1 H 34.311 v 12.62 h 22.464 c 0.553 0 1 0.447 1 1 C 57.775 64.833 57.328 65.281 56.775 65.281 z" style="stroke: none; stroke-width: 1; stroke-dasharray: none; stroke-linecap: butt; stroke-linejoin: miter; stroke-miterlimit: 10; fill: rgb(0,0,0); fill-rule: nonzero; opacity: 1;" transform=" matrix(1 0 0 1 0 0) " stroke-linecap="round" />
	<path d="M 52.71 84.972 H 12.381 c -4.47 0 -8.471 -2.31 -10.706 -6.18 c -2.234 -3.87 -2.234 -8.491 0 -12.361 l 4.116 -7.129 l -0.352 -0.203 c -0.31 -0.179 -0.5 -0.509 -0.5 -0.866 c 0 -0.357 0.19 -0.687 0.5 -0.866 l 9.066 -5.234 c 0.31 -0.178 0.69 -0.178 1 0 c 0.31 0.179 0.5 0.509 0.5 0.866 l 0.001 10.469 c 0 0.357 -0.19 0.687 -0.5 0.866 c -0.31 0.178 -0.69 0.178 -1 0 l -0.701 -0.404 L 9.69 71.058 c -0.781 1.352 -0.335 2.527 0 3.107 c 0.335 0.581 1.128 1.554 2.691 1.554 h 40.33 c 0.553 0 1 0.447 1 1 c 0 0.553 -0.447 1 -1 1 h -40.33 c -2.665 0 -3.981 -1.786 -4.424 -2.555 c -0.443 -0.767 -1.331 -2.802 0 -5.106 l 4.616 -7.994 c 0.276 -0.478 0.886 -0.644 1.366 -0.366 l 0.067 0.039 l -0.001 -7.006 l -6.112 3.528 c 0.288 0.313 0.353 0.789 0.129 1.177 l -4.615 7.995 c -1.873 3.244 -1.873 7.117 0 10.361 c 1.872 3.244 5.227 5.18 8.973 5.18 H 52.71 c 0.553 0 1 0.447 1 1 C 53.71 84.525 53.262 84.972 52.71 84.972 z" style="stroke: none; stroke-width: 1; stroke-dasharray: none; stroke-linecap: butt; stroke-linejoin: miter; stroke-miterlimit: 10; fill: rgb(0,0,0); fill-rule: nonzero; opacity: 1;" transform=" matrix(1 0 0 1 0 0) " stroke-linecap="round" />
	<path d="M 20.611 49.653 c -0.169 0 -0.341 -0.043 -0.499 -0.134 c -0.478 -0.276 -0.642 -0.888 -0.366 -1.366 l 20.165 -34.926 c 1.331 -2.305 3.537 -2.554 4.424 -2.554 c 0.886 0 3.092 0.249 4.423 2.554 l 4.615 7.994 c 0.276 0.478 0.112 1.09 -0.366 1.366 l -0.066 0.039 l 6.067 3.502 V 19.07 c -0.417 0.094 -0.859 -0.088 -1.084 -0.476 L 53.307 10.6 c -1.873 -3.244 -5.227 -5.181 -8.972 -5.181 c -3.746 0 -7.101 1.937 -8.974 5.181 L 15.197 45.525 c -0.277 0.477 -0.888 0.642 -1.366 0.366 c -0.478 -0.276 -0.642 -0.888 -0.366 -1.366 L 33.629 9.6 c 2.234 -3.87 6.237 -6.181 10.706 -6.181 c 4.469 0 8.47 2.31 10.705 6.181 l 4.116 7.128 l 0.352 -0.203 c 0.309 -0.179 0.691 -0.179 1 0 c 0.31 0.179 0.5 0.509 0.5 0.866 V 27.86 c 0 0.357 -0.19 0.687 -0.5 0.866 c -0.309 0.179 -0.691 0.179 -1 0 l -9.067 -5.234 c -0.31 -0.179 -0.5 -0.509 -0.5 -0.866 c 0 -0.357 0.19 -0.687 0.5 -0.866 l 0.7 -0.405 l -4.115 -7.128 c -0.78 -1.352 -2.02 -1.554 -2.69 -1.554 c -0.67 0 -1.912 0.202 -2.692 1.554 L 21.478 49.153 C 21.293 49.473 20.957 49.653 20.611 49.653 z" style="stroke: none; stroke-width: 1; stroke-dasharray: none; stroke-linecap: butt; stroke-linejoin: miter; stroke-miterlimit: 10; fill: rgb(0,0,0); fill-rule: nonzero; opacity: 1;" transform=" matrix(1 0 0 1 0 0) " stroke-linecap="round" />
	<path d="M 68.388 86.581 c -0.173 0 -0.346 -0.045 -0.5 -0.134 l -9.066 -5.234 c -0.31 -0.179 -0.5 -0.509 -0.5 -0.866 c 0 -0.357 0.19 -0.687 0.5 -0.866 l 9.066 -5.235 c 0.309 -0.178 0.691 -0.178 1 0 c 0.31 0.179 0.5 0.509 0.5 0.866 v 0.81 l 8.231 -0.001 c 0 0 0.001 0 0.002 0 c 1.56 0 2.353 -0.973 2.688 -1.553 c 0.336 -0.58 0.782 -1.755 0.001 -3.108 L 60.145 36.333 c -0.276 -0.479 -0.112 -1.09 0.366 -1.366 c 0.477 -0.277 1.089 -0.113 1.366 0.366 l 20.165 34.926 c 1.332 2.309 0.442 4.342 -0.002 5.109 c -0.442 0.767 -1.761 2.552 -4.42 2.552 c -0.001 0 -0.001 0 -0.002 0 l -9.231 0.001 c -0.265 0 -0.52 -0.105 -0.707 -0.293 s -0.293 -0.441 -0.293 -0.707 v -0.077 l -6.066 3.503 l 6.112 3.528 c 0.127 -0.405 0.506 -0.7 0.954 -0.7 h 9.231 c 3.746 0 7.099 -1.936 8.972 -5.179 c 1.874 -3.245 1.874 -7.119 0 -10.363 L 66.428 32.707 c -0.276 -0.479 -0.112 -1.09 0.366 -1.366 c 0.477 -0.276 1.089 -0.112 1.366 0.366 l 20.163 34.925 c 2.235 3.87 2.235 8.492 0 12.363 c -2.234 3.869 -6.236 6.179 -10.705 6.179 h -8.231 v 0.406 c 0 0.357 -0.19 0.687 -0.5 0.866 C 68.734 86.536 68.561 86.581 68.388 86.581 z" style="stroke: none; stroke-width: 1; stroke-dasharray: none; stroke-linecap: butt; stroke-linejoin: miter; stroke-miterlimit: 10; fill: rgb(0,0,0); fill-rule: nonzero; opacity: 1;" transform=" matrix(1 0 0 1 0 0) " stroke-linecap="round" />
</g>
</svg>